<svg xmlns="http://www.w3.org/2000/svg" width="600" height="172.121" xmlns:v="https://vecta.io/nano"><path d="M80.7 48.467v106.704h25.815v-31.586h8.125c17.908 0 26.767-6.933 31.196-15.026a45.21 45.21 0 0 0 4.426-21.766h-.027c0-11.943-3.663-38.326-33.321-38.326zm25.815 10.21l2.502.027c11.364 0 15.215 10.972 15.215 28.115 0 16.372-3.854 26.393-15.605 26.393h-2.112zM0 16.881v106.515h36.214c29.665 0 33.321-26.194 33.321-38.137a45.21 45.21 0 0 0-4.439-21.766C60.667 55.407 51.808 48.467 33.9 48.467h-8.098V16.881zm25.802 41.796h2.125c11.75 0 15.605 10.008 15.605 26.38 0 17.143-3.85 28.129-15.215 28.129h-2.516z" fill="#4b3c3c"/><path d="M326.662 46.153a92.011 92.011 0 0 0-24.281 2.69v11.556a49.205 49.205 0 0 1 5.018-1.735c9.829-2.886 27.55-4.808 27.55 12.914v2.314h-.39c-2.5 0-6.172.004-10.6.39a60.769 60.769 0 0 0-13.856 2.69 23.232 23.232 0 0 0-17.152 23.501c0 16.95 10.964 23.111 26.178 23.111h41.433l.188-49.693c0-17.336-11.938-27.739-34.088-27.739zm7.923 37.344h.39v29.461l-4.628.014c-5.586-.207-11.367-1.348-11.367-13.291a15.208 15.208 0 0 1 15.605-16.183zm231.892-37.693c-28.886-.193-36.012 21.029-36.012 37.559 0 14.443 5.593 42.375 43.343 42.375a84.414 84.414 0 0 0 23.299-3.282v-12.511c-16.565 6.516-39.863 7.287-41.406-24.107v-.39H600V77.78c0-18.486-12.337-31.976-33.523-31.976zm-.942 10.587c6.543 0 8.089 8.826 8.475 16.533v1.547.229h-17.918v-.578c.771-10.207 3.086-17.73 9.444-17.73zm-73.81-.223c-7.9 0-11.75 14.058-9.243 35.051 2.886 25.422 25.615 25.422 41.022 18.879v12.522a91.226 91.226 0 0 1-23.886 3.272 39.569 39.569 0 0 1-42.758-41.408c0-16.179 5.779-38.522 36.401-38.522a29.837 29.837 0 0 1 32.165 30.994h-24.485c0-11.172-2.314-20.801-9.243-20.801" fill="#ffcd00"/><path d="M187.019 48.468v75.116h-25.615V48.468z" fill="#4b3c3c"/><path d="M445.496 123.584h-25.808V78.512c0-17.722-6.743-18.686-16.179-18.879h-1.736v63.944h-25.615V48.275c2.121.193 9.05.386 32.165.386 37.193 0 37.365 17.336 37.365 31.201zM250.963 16.881v10.786l-7.514.193a21.4 21.4 0 0 0-7.129 1.543 12.039 12.039 0 0 0-7.129 12.714v6.357h18.107v10.979h-18.107v63.944h-25.608V48.082c0-27.929 19.065-31.201 42.372-31.201zm41.408 40.066a14.615 14.615 0 0 0-15.408 16.53v49.887h-25.615V72.705c0-15.215 14.058-26.772 35.815-26.772h5.2z" fill="#ffcd00"/><path d="M174.277 33.06a16.53 16.53 0 1 1 16.53-16.53 16.53 16.53 0 0 1-16.53 16.53" fill="#4b3c3c"/><path d="M174.277 172.121a16.53 16.53 0 1 1 16.53-16.53 16.53 16.53 0 0 1-16.53 16.53" fill="#ffcd00"/></svg>