<svg width="726" height="578" viewBox="0 0 726 578" fill="none" xmlns="http://www.w3.org/2000/svg">
<path d="M278.999 275.644C255.142 270.784 240.959 220.844 269.265 203.614C295.185 187.836 300.237 159.447 314.814 147.18C353.189 114.885 352.349 134.429 380.463 126.32C414.674 116.453 476.794 138.183 447.308 189.254C423.058 231.257 450.714 230.467 441.594 267.138C432.475 303.809 396.495 330.595 355.985 307.207C340.773 298.424 318.735 283.739 278.999 275.644Z" stroke="url(#paint0_linear_3_216)" stroke-width="2"/>
<path d="M116.265 377.019C-7.39153 345.604 31.486 215.193 116.393 152.024C169.069 110.895 141.31 41.8223 197.036 -5.13908C265.744 -63.0245 288.004 42.0945 378.033 -23.0278C471.388 -89.1093 616.373 37.5744 562.529 134.374C511.542 226.227 559.803 220.017 566.732 337.635C573.661 455.253 416.716 543.456 335.972 458.824C269.026 382.159 257.712 412.572 116.265 377.019Z" stroke="url(#paint1_linear_3_216)" stroke-width="2"/>
<path d="M148.591 356.625C44.8943 330.521 73.1598 216.204 146.746 162.223C194.071 126.164 172.875 65.228 220.371 25.2055C283.012 -27.5617 300.652 60.4422 378.298 6.72262C459.824 -48.1161 588.236 57.577 539.264 145.23C493.624 227.114 537.764 221.987 541.484 323.416C545.203 424.845 412.451 500.765 339.754 428.382C283.155 365.293 269.696 386.686 148.591 356.625Z" stroke="url(#paint2_linear_3_216)" stroke-width="2"/>
<path d="M180.984 336.268C97.2471 315.475 114.901 217.252 177.167 172.459C219.14 141.47 204.506 88.6709 243.773 55.5873C300.347 7.93824 313.367 78.8271 378.63 36.5101C448.328 -7.08582 560.166 77.6168 516.066 156.124C475.773 228.038 515.793 223.996 516.302 309.235C516.812 394.474 408.253 458.11 343.602 397.976C297.35 348.464 281.747 360.837 180.984 336.268Z" stroke="url(#paint3_linear_3_216)" stroke-width="2"/>
<path d="M213.476 315.965C149.699 300.483 156.74 218.355 207.686 182.749C244.309 156.83 236.237 112.168 267.273 86.0234C317.781 43.4925 326.182 97.2663 379.062 66.352C436.93 33.9988 532.196 97.7108 492.967 167.073C458.022 229.016 493.92 226.058 491.22 295.108C488.52 364.158 404.154 415.51 347.55 367.625C311.645 331.689 293.896 335.043 213.476 315.965Z" stroke="url(#paint4_linear_3_216)" stroke-width="2"/>
<path d="M246.119 295.744C202.302 285.573 198.731 219.539 238.357 193.121C269.628 172.272 268.118 135.747 290.925 116.541C335.367 79.1282 339.147 115.787 379.644 96.2752C425.684 75.1649 504.376 117.886 470.019 178.102C440.421 230.076 472.199 228.202 466.289 281.062C460.379 333.923 400.205 372.992 351.649 337.355C326.09 314.996 306.197 309.33 246.119 295.744Z" stroke="url(#paint5_linear_3_216)" stroke-width="2"/>
<defs>
<linearGradient id="paint0_linear_3_216" x1="287.259" y1="164.784" x2="449.836" y2="258.648" gradientUnits="userSpaceOnUse">
<stop stop-color="#323232"/>
<stop offset="1" stop-color="#060606"/>
</linearGradient>
<linearGradient id="paint1_linear_3_216" x1="136.972" y1="81.2488" x2="588.947" y2="342.196" gradientUnits="userSpaceOnUse">
<stop stop-color="#323232"/>
<stop offset="1" stop-color="#060606"/>
</linearGradient>
<linearGradient id="paint2_linear_3_216" x1="167.004" y1="97.9995" x2="560.854" y2="325.388" gradientUnits="userSpaceOnUse">
<stop stop-color="#323232"/>
<stop offset="1" stop-color="#060606"/>
</linearGradient>
<linearGradient id="paint3_linear_3_216" x1="197.042" y1="114.74" x2="532.837" y2="308.611" gradientUnits="userSpaceOnUse">
<stop stop-color="#323232"/>
<stop offset="1" stop-color="#060606"/>
</linearGradient>
<linearGradient id="paint4_linear_3_216" x1="227.09" y1="131.464" x2="504.937" y2="291.879" gradientUnits="userSpaceOnUse">
<stop stop-color="#323232"/>
<stop offset="1" stop-color="#060606"/>
</linearGradient>
<linearGradient id="paint5_linear_3_216" x1="257.155" y1="148.157" x2="477.222" y2="275.213" gradientUnits="userSpaceOnUse">
<stop stop-color="#323232"/>
<stop offset="1" stop-color="#060606"/>
</linearGradient>
</defs>
</svg>
