<svg width="1166" height="403" viewBox="0 0 1166 403" fill="none" xmlns="http://www.w3.org/2000/svg">
<path d="M934.47 -303.746C1234.98 -480.246 1356.89 -157.37 1323.06 108.281C1310.09 261.461 1491.38 311.198 1475.2 500.989C1459.03 690.78 1206.44 536.138 1176.27 827.991C1146.1 1119.84 659.084 1111.81 591.867 881.798C524.65 651.789 465.595 735.763 229.515 551.001C-6.56548 366.238 130.805 -88.4046 412.16 -59.8934C693.515 -31.3822 609.167 -112.682 934.47 -303.746Z" stroke="url(#paint0_linear_432_824)" stroke-width="3.06952"/>
<path d="M815.377 261.961C843.516 243.347 906.344 278.383 895.492 322.999C885.555 363.856 908.42 396.622 906.157 422.924C900.199 492.168 881.873 472.195 862.271 507.688C838.419 550.877 756.261 590.45 735.112 511.52C717.718 446.603 691.393 474.475 664.398 429.609C637.402 384.742 646.411 323.243 709.019 306.467C732.53 300.168 768.512 292.963 815.377 261.961Z" stroke="url(#paint1_linear_432_824)" stroke-width="3.06952"/>
<path d="M925.218 -252.747C1200.96 -414.894 1317.51 -118.185 1285.76 127.372C1273.07 270.341 1439.96 318.535 1425.05 493.463C1409.8 672.296 1178.51 529.896 1149.3 798.444C1119.71 1067.69 669.493 1063.98 606.464 847.708C543.777 632.707 487.697 711.58 270.624 539.536C53.5519 367.492 179.253 -51.4109 440.722 -27.0167C698.637 -1.67019 625.228 -76.2344 925.218 -252.747Z" stroke="url(#paint2_linear_432_824)" stroke-width="3.06952"/>
<path d="M915.965 -201.748C1166.95 -349.541 1278.12 -78.9991 1248.47 146.464C1236.05 279.221 1388.54 325.873 1374.89 485.939C1360.57 653.812 1150.58 523.655 1122.33 768.897C1093.31 1015.54 679.901 1016.16 621.061 813.618C562.902 613.626 509.798 687.399 311.733 528.072C113.668 368.746 227.7 -14.4166 469.283 5.86057C703.757 28.0425 641.288 -39.7858 915.965 -201.748Z" stroke="url(#paint3_linear_432_824)" stroke-width="3.06952"/>
<path d="M906.712 -150.747C1132.94 -284.188 1238.74 -39.813 1211.17 165.556C1199.03 288.102 1337.11 333.211 1324.73 478.414C1311.34 635.328 1122.64 517.414 1095.36 739.351C1066.91 963.387 690.309 968.334 635.656 779.528C582.027 594.545 531.898 663.218 352.841 516.609C173.784 370 276.147 22.5781 497.843 38.7383C708.877 57.7556 657.346 -3.33669 906.712 -150.747Z" stroke="url(#paint4_linear_432_824)" stroke-width="3.06952"/>
<path d="M897.456 -99.7458C1098.92 -218.833 1199.35 -0.625509 1173.87 184.65C1162.01 296.984 1285.69 340.55 1274.57 470.891C1262.11 616.846 1094.71 511.175 1068.38 709.806C1040.51 911.236 700.713 920.512 650.248 745.44C601.149 575.465 553.995 639.038 393.946 505.147C233.897 371.256 324.59 59.5743 526.401 71.6175C713.994 87.4702 673.403 33.1138 897.456 -99.7458Z" stroke="url(#paint5_linear_432_824)" stroke-width="3.06952"/>
<path d="M887.118 -48.4545C1063.82 -153.188 1158.88 38.8518 1135.49 204.033C1123.9 306.156 1233.18 348.18 1223.33 463.657C1211.8 598.654 1065.69 505.225 1040.33 680.551C1013.03 859.375 710.037 872.979 663.76 711.642C619.19 556.675 575.012 615.148 433.97 493.975C292.928 372.801 371.953 96.8603 553.877 104.786C718.03 117.474 688.378 69.8541 887.118 -48.4545Z" stroke="url(#paint6_linear_432_824)" stroke-width="3.06952"/>
<path d="M875.498 3.18173C1027.44 -87.1986 1117.13 78.6738 1095.83 223.761C1084.51 315.673 1179.39 356.154 1170.8 456.769C1160.2 580.807 1035.39 499.621 1010.99 651.641C984.264 807.859 718.077 825.791 675.988 678.189C635.947 538.23 594.745 591.603 472.711 483.147C350.677 374.692 418.032 134.491 580.071 138.3C720.784 147.824 702.07 106.939 875.498 3.18173Z" stroke="url(#paint7_linear_432_824)" stroke-width="3.06952"/>
<path d="M863.807 54.838C990.988 -21.189 1075.3 118.516 1056.09 243.509C1045.06 325.21 1125.53 364.148 1118.21 449.9C1108.53 562.979 1005.02 494.036 981.576 622.75C955.428 756.363 726.047 778.623 688.146 644.755C652.635 519.805 614.408 568.078 511.382 472.34C408.355 376.602 464.041 172.142 606.194 171.834C723.466 178.193 715.692 144.044 863.807 54.838Z" stroke="url(#paint8_linear_432_824)" stroke-width="3.06952"/>
<path d="M852.014 106.524C954.434 44.8498 1033.38 158.387 1016.26 263.286C1005.49 334.776 1071.57 372.171 1065.51 443.061C1056.76 545.181 974.548 488.481 952.065 593.889C926.49 704.896 733.915 731.485 700.202 611.351C669.22 501.41 633.968 544.582 549.95 461.562C465.932 378.542 509.948 209.822 632.214 205.397C726.047 208.591 729.211 181.179 852.014 106.524Z" stroke="url(#paint9_linear_432_824)" stroke-width="3.06952"/>
<path d="M840.071 158.253C917.731 110.932 991.302 198.303 976.271 283.107C965.784 344.386 1017.45 380.238 1012.66 436.266C1004.84 527.427 943.925 482.969 922.403 565.072C897.402 653.473 741.633 684.39 712.108 577.991C685.655 483.058 653.379 521.13 588.368 450.828C523.358 380.525 555.705 247.546 658.085 239.004C728.477 239.033 742.58 218.357 840.071 158.253Z" stroke="url(#paint10_linear_432_824)" stroke-width="3.06952"/>
<path d="M827.9 210.05C880.799 177.083 948.999 238.286 936.057 302.997C925.845 354.064 963.112 388.374 959.584 429.538C952.697 509.741 913.075 477.526 892.513 536.323C868.087 602.118 749.123 637.363 723.786 544.699C701.862 464.774 672.562 497.746 626.559 440.162C580.556 382.577 601.234 285.338 683.728 272.679C730.679 269.544 755.722 255.603 827.9 210.05Z" stroke="url(#paint11_linear_432_824)" stroke-width="3.06952"/>
<defs>
<linearGradient id="paint0_linear_432_824" x1="1420.08" y1="235.321" x2="171.306" y2="569.928" gradientUnits="userSpaceOnUse">
<stop stop-color="#323232"/>
<stop offset="1" stop-color="#171717"/>
</linearGradient>
<linearGradient id="paint1_linear_432_824" x1="915.907" y1="378.677" x2="664.642" y2="446.003" gradientUnits="userSpaceOnUse">
<stop stop-color="#323232"/>
<stop offset="1" stop-color="#171717"/>
</linearGradient>
<linearGradient id="paint2_linear_432_824" x1="1374.23" y1="248.305" x2="217.746" y2="558.184" gradientUnits="userSpaceOnUse">
<stop stop-color="#323232"/>
<stop offset="1" stop-color="#171717"/>
</linearGradient>
<linearGradient id="paint3_linear_432_824" x1="1328.38" y1="261.291" x2="264.184" y2="546.442" gradientUnits="userSpaceOnUse">
<stop stop-color="#323232"/>
<stop offset="1" stop-color="#171717"/>
</linearGradient>
<linearGradient id="paint4_linear_432_824" x1="1282.54" y1="274.279" x2="310.621" y2="534.704" gradientUnits="userSpaceOnUse">
<stop stop-color="#323232"/>
<stop offset="1" stop-color="#171717"/>
</linearGradient>
<linearGradient id="paint5_linear_432_824" x1="1236.69" y1="287.272" x2="357.055" y2="522.971" gradientUnits="userSpaceOnUse">
<stop stop-color="#323232"/>
<stop offset="1" stop-color="#171717"/>
</linearGradient>
<linearGradient id="paint6_linear_432_824" x1="1190.85" y1="300.268" x2="402.407" y2="511.532" gradientUnits="userSpaceOnUse">
<stop stop-color="#323232"/>
<stop offset="1" stop-color="#171717"/>
</linearGradient>
<linearGradient id="paint7_linear_432_824" x1="1145.01" y1="313.272" x2="446.475" y2="500.444" gradientUnits="userSpaceOnUse">
<stop stop-color="#323232"/>
<stop offset="1" stop-color="#171717"/>
</linearGradient>
<linearGradient id="paint8_linear_432_824" x1="1099.17" y1="326.286" x2="490.471" y2="489.387" gradientUnits="userSpaceOnUse">
<stop stop-color="#323232"/>
<stop offset="1" stop-color="#171717"/>
</linearGradient>
<linearGradient id="paint9_linear_432_824" x1="1053.34" y1="339.315" x2="534.36" y2="478.374" gradientUnits="userSpaceOnUse">
<stop stop-color="#323232"/>
<stop offset="1" stop-color="#171717"/>
</linearGradient>
<linearGradient id="paint10_linear_432_824" x1="1007.51" y1="352.369" x2="578.092" y2="467.431" gradientUnits="userSpaceOnUse">
<stop stop-color="#323232"/>
<stop offset="1" stop-color="#171717"/>
</linearGradient>
<linearGradient id="paint11_linear_432_824" x1="961.695" y1="365.472" x2="621.578" y2="456.606" gradientUnits="userSpaceOnUse">
<stop stop-color="#323232"/>
<stop offset="1" stop-color="#171717"/>
</linearGradient>
</defs>
</svg>
