<svg height="529.58636" viewBox="-11.493675 -16.3118 43.962387 64.788801" width="529.60431" xmlns="http://www.w3.org/2000/svg"><path d="m33.326708 38.892621h-9.6v-15.034c0-3.585-.064-8.2-4.993-8.2-5 0-5.765 3.906-5.765 7.939v15.294h-9.6v-30.9160004h9.216v4.2250004h.129c1.879195-3.2130474 5.373325-5.1320714 9.093-4.9940004 9.73 0 11.524 6.4000004 11.524 14.7260004zm-40.79-35.1430004c-4.963576.000891-7.449522-5.999402-3.940799-9.509385 3.508723-3.5099823 9.509908-1.026191 9.510799 3.937385.000552 3.076778-2.493222 5.571448-5.57 5.572m4.8 35.1430004h-9.61v-30.9170004h9.61zm40.776-55.2h-55.21c-2.609339-.02945-4.749154 2.060689-4.781 4.67v55.439c.03076 2.610568 2.170399 4.702773 4.781 4.675h55.21c2.615766.03281 4.763788-2.059279 4.8-4.675v-55.443c-.0373-2.614466-2.185496-4.704482-4.8-4.67" fill="#fff"/></svg>